<svg width="1200" height="300" viewBox="0 0 1200 300" fill="none" xmlns="http://www.w3.org/2000/svg">
  <defs>
    <linearGradient id="bg" x1="0" y1="0" x2="1200" y2="300" gradientUnits="userSpaceOnUse">
      <stop offset="0" stop-color="#12051F"/>
      <stop offset="0.35" stop-color="#2E1065"/>
      <stop offset="0.7" stop-color="#6D28D9"/>
      <stop offset="1" stop-color="#C084FC"/>
    </linearGradient>
    <linearGradient id="line" x1="120" y1="250" x2="1080" y2="250" gradientUnits="userSpaceOnUse">
      <stop offset="0" stop-color="#C084FC" stop-opacity="0"/>
      <stop offset="0.5" stop-color="#E9D5FF"/>
      <stop offset="1" stop-color="#C084FC" stop-opacity="0"/>
    </linearGradient>
    <radialGradient id="glowA" cx="0" cy="0" r="1" gradientUnits="userSpaceOnUse" gradientTransform="translate(260 70) rotate(46) scale(250 150)">
      <stop stop-color="#D8B4FE" stop-opacity="0.6"/>
      <stop offset="1" stop-color="#D8B4FE" stop-opacity="0"/>
    </radialGradient>
    <radialGradient id="glowB" cx="0" cy="0" r="1" gradientUnits="userSpaceOnUse" gradientTransform="translate(980 210) rotate(46) scale(260 160)">
      <stop stop-color="#A855F7" stop-opacity="0.55"/>
      <stop offset="1" stop-color="#A855F7" stop-opacity="0"/>
    </radialGradient>
    <filter id="softShadow" x="-20%" y="-20%" width="140%" height="140%">
      <feDropShadow dx="0" dy="18" stdDeviation="24" flood-color="#000000" flood-opacity="0.35"/>
    </filter>
  </defs>

  <rect width="1200" height="300" rx="24" fill="url(#bg)"/>
  <rect width="1200" height="300" rx="24" fill="url(#glowA)"/>
  <rect width="1200" height="300" rx="24" fill="url(#glowB)"/>

  <g opacity="0.16">
    <path d="M0 72H1200" stroke="#F5F3FF"/>
    <path d="M0 132H1200" stroke="#F5F3FF"/>
    <path d="M0 192H1200" stroke="#F5F3FF"/>
    <path d="M0 252H1200" stroke="#F5F3FF"/>
    <path d="M120 0V300" stroke="#F5F3FF"/>
    <path d="M300 0V300" stroke="#F5F3FF"/>
    <path d="M480 0V300" stroke="#F5F3FF"/>
    <path d="M660 0V300" stroke="#F5F3FF"/>
    <path d="M840 0V300" stroke="#F5F3FF"/>
    <path d="M1020 0V300" stroke="#F5F3FF"/>
  </g>

  <g filter="url(#softShadow)">
    <rect x="120" y="52" width="960" height="196" rx="22" fill="#0D1117" fill-opacity="0.62" stroke="#E9D5FF" stroke-opacity="0.22"/>
    <text x="600" y="126" text-anchor="middle" fill="#FFFFFF" font-family="Inter, Segoe UI, Arial, sans-serif" font-size="42" font-weight="800" letter-spacing="0">
      Divanildo | Software Developer
    </text>
    <text x="600" y="166" text-anchor="middle" fill="#E9D5FF" font-family="Inter, Segoe UI, Arial, sans-serif" font-size="18" font-weight="600" letter-spacing="0">
      Java | TypeScript | JavaScript | Web &amp; Mobile Development
    </text>
    <text x="600" y="204" text-anchor="middle" fill="#C084FC" font-family="Inter, Segoe UI, Arial, sans-serif" font-size="15" font-weight="700" letter-spacing="2">
      CLEAN CODE  -  SCALABLE SOLUTIONS  -  CONTINUOUS EVOLUTION
    </text>
  </g>

  <path d="M140 258C254 230 351 282 470 254C613 220 705 282 840 254C960 229 1010 231 1060 246" stroke="url(#line)" stroke-width="3" stroke-linecap="round"/>
</svg>
